:SAMPLES-PER-SECOND 30
:FULLY-SPECIFIED
:DEGREES
284
root  61.5205 39.2632 -0.918651 4.62674 -4.31433 0.596674
RightUpLeg  -9.36721 -21.9759 -19.9951
RightLeg  27.2208 -10.5541 -6.06198
RightFoot  -2.85531 -0.0180129 -0.0241537
RightToes  0.00048216 0.542163 -0.142577
Spine  37.887 2.29977 -6.21593
Spine1  10.3479 0.0862879 0.706969
HEad  -10.0974 -13.5123 9.70956
LeftShoulder1  8.94035 -15.9103 -39.8053
LeftArm  -16.3192 14.196 -18.7175
LeftForeArm  9.26734 -11.804 -3.74234
LeftHand  -0.25398 0.0180481 5.50724
RightShoulder  6.0853 11.0832 35.7373
RightArm  5.0505 -17.965 30.7533
RightForeArm  -16.2972 17.9122 7.1165
RightHand  -3.27766 8.55616 -27.202
LeftUpLeg  -17.3883 13.5166 8.82583
LeftLeg  4.76727 41.368 -6.11627
LeftFoot  10.6501 -0.947909 4.53913
LeftToes  1.06244e-005 4.65856e-005 -8.18505e-006
285
root  60.7644 39.1569 -1.12846 3.85186 -5.68696 1.12645
RightUpLeg  -7.31625 -24.7968 -21.3197
RightLeg  27.3926 -12.2415 -7.01993
RightFoot  -3.36697 0.0689475 -1.29177
RightToes  0.00048216 0.542163 -0.142577
Spine  35.655 2.49395 -6.38512
Spine1  10.2608 0.428514 0.498049
HEad  -8.76893 -15.8775 9.74918
LeftShoulder1  8.79861 -15.3667 -40.3547
LeftArm  -15.1565 18.417 -17.9392
LeftForeArm  8.03641 -13.5478 -3.87571
LeftHand  -0.25398 0.0180481 5.50724
RightShoulder  6.03218 10.7481 36.3322
RightArm  6.69608 -21.8613 31.8953
RightForeArm  -13.6135 17.5032 7.26205
RightHand  -2.56407 6.50422 -25.0133
LeftUpLeg  -16.1989 14.1552 9.92088
LeftLeg  4.10129 41.9144 -6.50007
LeftFoot  11.8665 -0.898997 4.02452
LeftToes  1.06244e-005 4.65856e-005 -8.18505e-006
286
root  59.947 39.0191 -1.42114 3.16524 -7.78738 1.35643
RightUpLeg  -6.1508 -27.6832 -21.6765
RightLeg  27.0287 -12.9559 -7.29925
RightFoot  -2.61097 0.125258 -1.90756
RightToes  0.00048216 0.542163 -0.142577
Spine  33.4961 2.57686 -6.55184
Spine1  10.4246 0.670063 0.248014
HEad  -7.96124 -17.1119 9.14134
LeftShoulder1  8.60472 -14.6559 -41.0682
LeftArm  -14.6638 22.541 -17.6536
LeftForeArm  7.53386 -15.717 -3.85141
LeftHand  -0.25398 0.0180481 5.50724
RightShoulder  6.12945 10.7947 36.8619
RightArm  7.82876 -24.7025 32.7427
RightForeArm  -10.0059 17.114 7.32748
RightHand  -1.77322 3.91687 -22.1802
LeftUpLeg  -14.9744 14.9677 11.5165
LeftLeg  3.54632 43.2545 -6.53606
LeftFoot  13.392 -0.739796 3.00088
LeftToes  1.06244e-005 4.65856e-005 -8.18505e-006
287
root  59.0588 38.8752 -1.76389 2.43525 -10.3889 1.52975
RightUpLeg  -5.18362 -30.3679 -21.3644
RightLeg  25.9863 -13.0677 -7.05763
RightFoot  -2.19493 -0.0162525 0.0399513
RightToes  0.00048216 0.542163 -0.142577
Spine  31.5704 2.63601 -6.90394
Spine1  10.4487 0.773302 0.1764
HEad  -7.24576 -17.3719 8.20255
LeftShoulder1  8.42764 -14.0805 -41.5791
LeftArm  -14.3963 26.8492 -17.9365
LeftForeArm  7.36276 -17.9381 -3.89279
LeftHand  -0.25398 0.0180481 5.50724
RightShoulder  6.14161 10.6267 37.4399
RightArm  8.39572 -26.6366 33.2557
RightForeArm  -6.42723 16.8503 7.2995
RightHand  -1.13608 1.43145 -19.3831
LeftUpLeg  -13.2677 15.5565 13.3306
LeftLeg  2.22684 45.0832 -6.763
LeftFoot  15.0578 -0.536329 1.88878
LeftToes  1.06244e-005 4.65856e-005 -8.18505e-006
288
root  58.0836 38.6972 -2.14975 1.48435 -13.1107 1.99908
RightUpLeg  -4.49949 -31.8259 -20.9619
RightLeg  25.642 -12.6155 -6.73002
RightFoot  -4.16339 -0.295122 4.43737
RightToes  0.00048216 0.542163 -0.142577
Spine  29.7628 2.54507 -7.58574
Spine1  10.454 0.508895 0.50226
HEad  -6.45681 -16.726 6.87799
LeftShoulder1  8.31489 -13.6171 -42.1758
LeftArm  -13.8043 30.8604 -18.451
LeftForeArm  6.92099 -19.7133 -4.07333
LeftHand  -0.25398 0.0180481 5.50724
RightShoulder  5.98762 10.2448 37.5226
RightArm  7.55225 -27.9883 34.0162
RightForeArm  -3.1736 16.6365 7.17241
RightHand  -0.69697 -0.55629 -16.6552
LeftUpLeg  -11.0136 15.8971 15.0869
LeftLeg  0.109229 46.821 -7.56763
LeftFoot  16.6748 -0.330319 0.915103
LeftToes  1.06244e-005 4.65856e-005 -8.18505e-006
